<!-- <?xml version="1.0" standalone="yes"?> -->
<svg width="0" height="0" class="hidden">
  <!-- <symbol xmlns="http://www.w3.org/2000/svg" viewBox="0 0 600 562" id="logo"> -->
  <symbol xmlns="http://www.w3.org/2000/svg" viewBox="20 -10 600 460" id="logo">
    <path style="fill:transparent; stroke:none;" d="M0 0L0 562L600 562L600 0L0 0z"/>
    <path style="fill:#c8b443; stroke:none;" d="M278 76L278 77L282 77L278 76z"/>
    <path style="fill:#626492; stroke:none;" d="M257 88C250.818 89.0562 246.657 95.7358 243.792 101C234.664 117.774 237.061 134.082 244 151L243 151C231.412 131.5 200.892 130.544 183 140.312C176.565 143.826 167.996 149.21 167 157C161.001 160.405 159.764 168.783 158 175C169.712 170.712 179.92 163.215 192 159.344C210.395 153.45 228.095 154 247 154C251.147 133.91 259.653 115.086 272.45 99C278.702 91.1403 287.136 84.9667 293 77C282.575 74.5179 262.42 77.5686 257 88z"/>
    <path style="fill:#c8b443; stroke:none;" d="M291 76L291 77L294 78L291 76M296.667 76.3333L297.333 76.6667L296.667 76.3333z"/>
    <path style="fill:#b13a59; stroke:none;" d="M297 77L297 78C311.988 89.4196 325.329 105.793 333.136 123C336.228 129.816 338.912 136.812 340.999 144C341.783 146.698 342.138 151.18 344.564 152.972C347.715 155.301 353.478 153.685 357 153.286C362.945 152.614 370.072 153.579 376 154.428C396.933 157.426 413.229 166.236 432 175C425.832 133.239 374.712 122.878 347 150C358.737 121.383 350.318 88.3308 318 78.348C311.488 76.3365 303.603 75.0483 297 77z"/>
    <path style="fill:#c8b443; stroke:none;" d="M308 76L308 77L312 77L308 76M274.667 77.3333L275.333 77.6667L274.667 77.3333M315 77L316 78L315 77M271 78L272 79L271 78M318.667 78.3333L319.333 78.6667L318.667 78.3333M268 79L269 80L268 79M299 79L300 80L299 79M321.667 79.3333L322.333 79.6667L321.667 79.3333M266 80L267 81L266 80M300 80L301 81L300 80M324 80L325 81L324 80M264 81L265 82L264 81M301 81L302 82L301 81M326 81L327 82L326 81M262 82L263 83L262 82M287 82L288 83L287 82M302 82L303 83L302 82M328 82L329 83L328 82M260 83L261 84L260 83M286 83L287 84L286 83M285 84L286 85L285 84M331 84L332 85L331 84M257 85L258 86L257 85M284 85L285 86L284 85M332 85L333 86L332 85M256 86L257 87L256 86M283 86L284 87L283 86M334 86L335 87L334 86M378.667 86.3333L379.333 86.6667L378.667 86.3333M206 87L207 88L206 87z"/>
    <path style="fill:#626492; stroke:none;" d="M207 87.5324C182.318 93.4035 192.33 131.343 217 125.468C241.565 119.617 231.544 81.6943 207 87.5324z"/>
    <path style="fill:#c8b443; stroke:none;" d="M216.667 87.3333L217.333 87.6667L216.667 87.3333z"/>
    <path style="fill:#2b241d; stroke:none;" d="M256 87L257 88L256 87z"/>
    <path style="fill:#c8b443; stroke:none;" d="M282 87L283 88L282 87M335 87L336 88L335 87M372.667 87.3333L373.333 87.6667L372.667 87.3333z"/>
    <path style="fill:#b13a59; stroke:none;" d="M374 87.5293C349.232 93.2452 358.392 131.15 383 125.471C407.629 119.787 398.491 81.8775 374 87.5293z"/>
    <path style="fill:#c8b443; stroke:none;" d="M383 87L384 88L383 87M203 88L204 89L203 88M281 88L282 89L281 88M336 88L337 89L336 88M370 88L371 89L370 88M386 88L387 89L386 88M280 89L281 90L280 89M337 89L338 90L337 89M368 89L369 90L368 89M388 89L389 90L388 89M200 90L201 91L200 90M223 90L224 91L223 90M279 90L280 91L279 90M338 90L339 91L338 90M366 90L367 91L366 90M278 91L279 92L278 91M311 91L312 92L311 91M339 91L340 92L339 91M365 91L366 92L365 91M391 91L392 92L391 91M277 92L278 93L277 92M312 92L313 93L312 92M340 92L341 93L340 92M364 92L365 93L364 92M392 92L393 93L392 92M313 93L314 94L313 93M341 93L342 94L341 93M363 93L364 94L363 93M393 93L394 94L393 93M196 94L197 95L196 94M227 94L228 95L227 94z"/>
    <path style="fill:#b13a59; stroke:none;" d="M270.667 94.3333L271.333 94.6667L270.667 94.3333z"/>
    <path style="fill:#c8b443; stroke:none;" d="M314 94L315 95L314 94M195 95L196 96L195 95M228 95L229 96L228 95M247 95L248 96L247 95M315 95L316 96L315 95M246 96L247 97L246 96M361 96L362 97L361 96M395 96L396 97L395 96M194 97L195 98L194 97M229 97L230 98L229 97M273 97L274 98L273 97M344 97L345 98L344 97M272 98L273 99L272 98M360 98L361 99L360 98M396 98L397 99L396 98M193 99L194 100L193 99M230 99L231 100L230 99M318 99L319 100L318 99M319 100L320 101L319 100M346 100L347 101L346 100M359 100L360 101L359 100M397.333 100.667L397.667 101.333L397.333 100.667M243 101L244 102L243 101M192.333 102.667L192.667 103.333L192.333 102.667M269 102L270 103L269 102M347 102L348 103L347 102M231.333 103.667L231.667 104.333L231.333 103.667M242 103L243 104L242 103M321 103L322 104L321 103M348 104L349 105L348 104M358 104L358 109L359 109L358 104M241 105L242 106L241 105M267 105L268 106L267 105M323 106L324 107L323 106M349 106L350 107L349 106M240 107L241 108L240 107M324 107L325 108L324 107M231.333 108.667L231.667 109.333L231.333 108.667M265 108L266 109L265 108M192.333 109.667L192.667 110.333L192.333 109.667M325 109L326 110L325 109M350 109L351 110L350 109M239 110L240 111L239 110M326 110L327 111L326 110M263 111L264 112L263 111M397.333 111.667L397.667 112.333L397.333 111.667M327 112L328 113L327 112M351.333 112.667L351.667 113.333L351.333 112.667M359 112L360 113L359 112M193 113L194 114L193 113z"/>
    <path style="fill:#b13a59; stroke:none;" d="M227 113L228 114L227 113z"/>
    <path style="fill:#c8b443; stroke:none;" d="M230 113L231 114L230 113M262 113L263 114L262 113M238 114L239 115L238 114M328 114L329 115L328 114M360 114L361 115L360 114M396 114L397 115L396 114M194 115L195 116L194 115M229 115L230 116L229 115M260 116L261 117L260 116M352 116L352 119L353 119L352 116M395 116L396 117L395 116M195 117L196 118L195 117M228 117L229 118L228 117M330 117L331 118L330 117M259 118L260 119L259 118M362 118L363 119L362 118M237 119L237 124L238 124L237 119M331 119L332 120L331 119M363 119L364 120L363 119M393 119L394 120L393 119M258 120L259 121L258 120M364 120L365 121L364 120M392 120L393 121L392 120M332 121L333 122L332 121M365 121L366 122L365 121M391 121L392 122L391 121M200 122L201 123L200 122z"/>
    <path style="fill:#b13a59; stroke:none;" d="M211 122L212 123L211 122z"/>
    <path style="fill:#c8b443; stroke:none;" d="M223 122L224 123L223 122M257 122L258 123L257 122M366 122L367 123L366 122M390 122L391 123L390 122M201 123L202 124L201 123M222 123L223 124L222 123M333 123L334 124L333 123M368 123L369 124L368 123M388 123L389 124L388 123M256 124L257 125L256 124M370 124L371 125L370 124M386 124L387 125L386 124M206 125L207 126L206 125M217 125L218 126L217 125M372.667 125.333L373.333 125.667L372.667 125.333M383.667 125.333L384.333 125.667L383.667 125.333M237 126L238 127L237 126M255 126L256 127L255 126M334 126L335 127L334 126M378 126L379 127L378 126M237 128L237 132L238 132L237 128M335 128L336 129L335 128M336 130L337 131L336 130M253 131L254 132L253 131M352 132L352 135L353 135L352 132M337 133L338 134L337 133M199.667 134.333L200.333 134.667L199.667 134.333M213.667 134.333L214.333 134.667L213.667 134.333M252 134L253 135L252 134M375 134L375 135L378 135L375 134M389 134L389 135L392 135L389 134M194.667 135.333L195.333 135.667L194.667 135.333M218 135L219 136L218 135M370.667 135.333L371.333 135.667L370.667 135.333M395.667 135.333L396.333 135.667L395.667 135.333M191 136L192 137L191 136M222 136L223 137L222 136M238 136L239 137L238 136M338 136L339 137L338 136M367.667 136.333L368.333 136.667L367.667 136.333M399 136L400 137L399 136M188 137L189 138L188 137M251 137L252 138L251 137M351.333 137.667L351.667 138.333L351.333 137.667M365 137L366 138L365 137M401 137L402 138L401 137M186 138L187 139L186 138M227 138L228 139L227 138M339.333 138.667L339.667 139.333L339.333 138.667M362 138L363 139L362 138M404 138L405 139L404 138M184 139L185 140L184 139M229 139L230 140L229 139M239.333 139.667L239.667 140.333L239.333 139.667M406 139L407 140L406 139M182 140L183 141L182 140M231 140L232 141L231 140M250 140L251 141L250 140M408 140L409 141L408 140M180 141L181 142L180 141z"/>
    <path style="fill:#b13a59; stroke:none;" d="M222.667 141.333L223.333 141.667L222.667 141.333z"/>
    <path style="fill:#c8b443; stroke:none;" d="M350 141L351 142L350 141M357 141L358 142L357 141M409 141L410 142L409 141M179 142L180 143L179 142M234 142L235 143L234 142M240 142L241 143L240 142M340 142L341 143L340 142M355 142L356 143L355 142M411 142L412 143L411 142M177 143L178 144L177 143M249 143L250 144L249 143M354 143L355 144L354 143M412 143L413 144L412 143M176 144L177 145L176 144z"/>
    <path style="fill:#b13a59; stroke:none;" d="M245.667 144.333L246.333 144.667L245.667 144.333z"/>
    <path style="fill:#c8b443; stroke:none;" d="M349 144L350 145L349 144M238 145L239 146L238 145M241 145L242 146L241 145M341.333 145.667L341.667 146.333L341.333 145.667M351 145L352 146L351 145M415 145L416 146L415 145M239 146L240 147L239 146M348 146L347 150L348 146M350 146L351 147L350 146M416 146L417 147L416 146M240 147L241 148L240 147M242 147L243 148L242 147M248 147L249 148L248 147z"/>
    <path style="fill:#fcfdfd; stroke:none;" d="M348 147L349 148L348 147z"/>
    <path style="fill:#c8b443; stroke:none;" d="M417 147L418 148L417 147z"/>
    <path style="fill:#fcfdfd; stroke:none;" d="M242 148L243 149L242 148z"/>
    <path style="fill:#c8b443; stroke:none;" d="M418 148L419 149L418 148M242 149L244 151L244 149L242 149M342.333 149.667L342.667 150.333L342.333 149.667M419 149L420 150L419 149M346 150L347 151L346 150M420 150L421 151L420 150M247 151L248 152L247 151M421 151L422 152L421 151M168 152L169 153L168 152M167 153L168 154L167 153M226 153L226 154L236 154L226 153M343 153L344 154L343 153M355 153L355 154L365 154L355 153M214 154L214 155L217 155L214 154M245.667 154.333L246.333 154.667L245.667 154.333M344.667 154.333L345.333 154.667L344.667 154.333M373 154L373 155L377 155L373 154M423 154L424 155L423 154M207.667 155.333L208.333 155.667L207.667 155.333M381.667 155.333L382.333 155.667L381.667 155.333M424 155L425 156L424 155M165 156L166 157L165 156z"/>
    <path style="fill:#2b241d; stroke:none;" d="M166 156L167 157L166 156z"/>
    <path style="fill:#c8b443; stroke:none;" d="M202.667 156.333L203.333 156.667L202.667 156.333M386.667 156.333L387.333 156.667L386.667 156.333M198 157L199 158L198 157M391 157L392 158L391 157M425 157L426 158L425 157M194.667 158.333L195.333 158.667L194.667 158.333M395 158L396 159L395 158M426 158L427 159L426 158M163 159L164 160L163 159M191 159L192 160L191 159M398 159L399 160L398 159M188 160L189 161L188 160M401 160L402 161L401 160M427 160L428 161L427 160M162 161L163 162L162 161M185 161L186 162L185 161M404 161L405 162L404 161M183 162L184 163L183 162M407 162L408 163L407 162M428 162L429 163L428 162M161 163L162 164L161 163M180 163L181 164L180 163M409 163L410 164L409 163M178 164L179 165L178 164M411 164L412 165L411 164M176 165L177 166L176 165M413.667 165.333L414.333 165.667L413.667 165.333M429 165L430 166L429 165M160 166L161 167L160 166M174 166L175 167L174 166M416 166L417 167L416 166M418 167L419 168L418 167M430.333 167.667L430.667 168.333L430.333 167.667M170 168L171 169L170 168M419.667 168.333L420.333 168.667L419.667 168.333M159 169L160 170L159 169M168 169L169 170L168 169M166 170L167 171L166 170M423 170L424 171L423 170M425 171L426 172L425 171M431 171L432 172L431 171M158.333 172.667L158.667 173.333L158.333 172.667M427 172L428 173L427 172M161 173L162 174L161 173M428 173L429 174L428 173M430 174L431 175L430 174M431 175L432 176L431 175M157 177L158 178L157 177z"/>
    <path style="fill:#626492; stroke:none;" d="M157 178C146.971 204.906 156.112 235.547 185 245.91C194.108 249.177 202.639 248.402 212 248L212 249C176.054 259.578 172.008 323.731 209 336C205.259 316.712 202.797 298.55 206.46 279C207.981 270.88 217.128 254.772 215.187 247.184C213.479 240.511 197.067 232.926 192 227.985C184.096 220.278 176.296 212.451 170.461 203C165.574 195.085 162.548 185.33 157 178z"/>
    <path style="fill:#c8b443; stroke:none;" d="M432 178C426.189 195.065 415.176 212.521 401.816 224.665C396.371 229.613 391.06 234.588 385 238.795C382.006 240.873 376.793 242.887 375.133 246.326C372.493 251.794 381.691 269.598 382.996 276C387.394 297.569 383.87 315.684 381 337C414.221 321.215 418.841 260.724 379 249L379 248C406.486 251.474 433.525 236.221 437.7 207C439.18 196.638 436.286 187.88 434 178L432 178M156 179L157 180L156 179M158 179L159 180L158 179M155 181L156 182L155 181M159 182L160 183L159 182M154.333 184.667L154.667 185.333L154.333 184.667M160 184L161 185L160 184M161 186L162 187L161 186M153.333 188.667L153.667 189.333L153.333 188.667M162 188L163 189L162 188M163 190L164 191L163 190M164 192L165 193L164 192M152 194L152 197L153 197L152 194M165 194L166 195L165 194M166 196L167 197L166 196M169 201L170 202L169 201M152 203L152 206L153 206L152 203M170 203L171 204L170 203M171 204L172 205L171 204M172 206L173 207L172 206M173 207L174 208L173 207M153 210L154 211L153 210M175 210L176 211L175 210M154 214L155 215L154 214M178 214L179 215L178 214M179 215L180 216L179 215M155.333 216.667L155.667 217.333L155.333 216.667M156 219L157 220L156 219M157 221L158 222L157 221M158 223L159 224L158 223M159 225L160 226L159 225M160 226L161 227L160 226M162 229L163 230L162 229M195 231L196 232L195 231M196 232L197 233L196 232M200 235L201 236L200 235M171 238L172 239L171 238M204 238L205 239L204 238M174 240L175 241L174 240M207 240L208 241L207 240M177 242L178 243L177 242M210 242L211 243L210 242M179 243L180 244L179 243M181 244L182 245L181 244M213 244L214 245L213 244M156 245L157 246L156 245z"/>
    <path style="fill:#626492; stroke:none;" d="M157 245.519C131.606 250.906 139.914 289.073 165 283.61C189.036 278.375 181.062 240.415 157 245.519z"/>
    <path style="fill:#c8b443; stroke:none;" d="M164.667 245.333L165.333 245.667L164.667 245.333M183 245L184 246L183 245M215 245L216 246L215 245M425 245.532C399.366 251.629 410.632 290.098 436 283.442C460.037 277.136 448.908 239.846 425 245.532M153 246L154 247L153 246M186 246L187 247L186 246M216.333 246.667L216.667 247.333L216.333 246.667M190 247L191 248L190 247M212 247L213 248L212 247M149 248L150 249L149 248M171 248L172 249L171 248M195 248L195 249L198 249L195 248M206.667 248.333L207.333 248.667L206.667 248.333M211 248L212 249L211 248M209 249L210 250L209 249M215 249L216 250L215 249M174 250L175 251L174 250M207 250L208 251L207 250M214 251L215 252L214 251M204 252L205 253L204 252M143 254L144 255L143 254M177 254L178 255L177 254M201 254L202 255L201 254M213 254L214 255L213 254M200 255L201 256L200 255M142 256L143 257L142 256M178 256L179 257L178 256M212 257L213 258L212 257M141 259L142 260L141 259M179 259L180 260L179 259M211 259L212 260L211 259M194 261L195 262L194 261M193 262L194 263L193 262M210 263L211 264L210 263M191 265L192 266L191 265M190 266L191 267L190 266M209 266L210 267L209 266M189 268L190 269L189 268M141 269L142 270L141 269M179.333 269.667L179.667 270.333L179.333 269.667M208.333 269.667L208.667 270.333L208.333 269.667M188 270L189 271L188 270M142 272L143 273L142 272M178 272L179 273L178 272M187 272L188 273L187 272M143 274L144 275L143 274M177 274L178 275L177 274M186 274L187 275L186 274M207 274L208 275L207 274M145 277L146 278L145 277M175 277L176 278L175 277M146 278L147 279L146 278M174 278L175 279L174 278M206 278L206 281L207 281L206 278M147 279L148 280L147 279M173 279L174 280L173 279M148 280L149 281L148 280M172 280L173 281L172 280M184 280L185 281L184 280M150 281L151 282L150 281M170 281L171 282L170 281M168 282L169 283L168 282M154 283L155 284L154 283M166 283L167 284L166 283M183.333 284.667L183.667 285.333L183.333 284.667M205.333 285.667L205.667 286.333L205.333 285.667M204 295L204 306L205 306L204 295M183.333 301.667L183.667 302.333L183.333 301.667M211 338L211 339C242.003 362.941 289.223 351.902 295 309L296 309C296.805 346.775 355.14 370.321 379 338C358.948 337.834 338.459 331.282 321 321.688C314.751 318.255 301.718 304.375 295 304.882C287.455 305.451 276.871 317.471 270 321.23C252.046 331.052 231.675 337.943 211 338M184.333 305.667L184.667 306.333L184.333 305.667M185 309L186 310L185 309M187 314L188 315L187 314M205 315L205 318L206 318L205 315M188 316L189 317L188 316M189 318L190 319L189 318M190 319L191 320L190 319M191 321L192 322L191 321M192 322L193 323L192 322M206 322L206 325L207 325L206 322M194 325L195 326L194 325M195 326L196 327L195 326M196 327L197 328L196 327M197 328L198 329L197 328M207 328L208 329L207 328M198 329L199 330L198 329M199 330L200 331L199 330M202 332L203 333L202 332M208.333 332.667L208.667 333.333L208.333 332.667M203 333L204 334L203 333M206 335L207 336L206 335M208.667 336.333L209.333 336.667L208.667 336.333M290 343.532C265.805 349.297 275.436 387.147 300 381.471C325.121 375.665 314.926 337.594 290 343.532z"/>
    <!--  -->
    <!-- <path d="M75 410L75 411L79 411L75 410z"></path>
    <path d="M75 411L75 437C80.8434 436.096 104.964 432.725 90 423C100.216 411.205 82.7711 410.018 75 411z"></path>
    <path d="M88 410L89 411L88 410z"></path>
    <path d="M89 410L90 411L89 410z"></path>
    <path d="M99 410L99 411L115 411L99 410z"></path>
      <path d="M115 410L115 413L116 413L115 410M124 410L125 411L124 410z"></path>
      <path d="M125 410L126 411L125 410z"></path>
      <path d="M126.004 410.537C111.544 413.901 115.861 441.002 131.999 436.427C145.725 432.536 141.264 406.987 126.004 410.537z"></path>
      <path d="M132 410L133 411L132 410z"></path>
      <path d="M133 410L134 411L133 410z"></path>
      <path d="M178 410L178 411L184 412L178 410M252 410L252 411L255 411L252 410M300 410L300 411L303 411L300 410M416 410L416 411L419 411L416 410z"></path>
      <path d="M501 410L502 411L501 410z"></path>
      <path d="M501 413L502 413L504 414L505 414L505 410L501 413M90 411L91 412L90 411z"></path>
      <path d="M99 411C100.627 417.049 96.786 434.393 102 437L102 413L115 413L115 411L99 411z"></path>
      <path d="M122 411L123 412L122 411M134 411L135 412L134 411z"></path>
      <path d="M177 411L178 412L177 411z"></path>
      <path d="M169 437C175.277 433.346 177.418 419.694 180 413L181 413L185 421L178 422L178 424C188.803 424.128 184.837 432.622 192 437C191.536 431.681 187.501 410.62 180.065 411.466C173.542 412.208 169.787 431.652 169 437M252 411L252 414L255 414L255 411L252 411z"></path>
      <path d="M299 411L299 414L300 414L299 411z"></path>
      <path d="M300 411L300 414L303 414L303 411L300 411z"></path>
      <path d="M415 411L415 414L416 414L415 411z"></path>
      <path d="M416 411L416 414L419 414L419 411L416 411M502 411L502 414L504 414L504 411L502 411z"></path>
      <path d="M99 412L99 433L100 433L99 412z"></path>
      <path d="M136 412L137 413L136 412M184 412L185 413L184 412M78.6667 413.333L79.3333 413.667L78.6667 413.333z"></path>
      <path d="M78 433C91.4021 433 93.493 425.002 79 425L79 421C80.6573 420.999 82.3671 421.093 84.0201 420.941C95.6003 419.882 84.2984 408.232 79.0278 414.742C76.0935 418.367 78 428.509 78 433z"></path>
      <path d="M87 413L88 414L87 413z"></path>
      <path d="M92 413L93 414L92 413M102 413L102 436L103 436L102 413z"></path>
      <path d="M103 413L103 414L114 414L103 413z"></path>
      <path d="M114 413L115 414L114 413z"></path>
      <path d="M125 413L126 414L125 413z"></path>
      <path d="M126.044 413.758C116.591 417.311 120.572 437.936 131.891 433.254C140.823 429.559 137.085 409.607 126.044 413.758z"></path>
      <path d="M131 413L132 414L131 413z"></path>
      <path d="M132 413L133 414L132 413z"></path>
      <path d="M137 413L138 414L137 413M176 413L177 414L176 413M180 413L182 415L180 413z"></path>
      <path d="M184 413L185 414L184 413z"></path>
      <path d="M501 413L502 414L501 413z"></path>
      <path d="M89 414L90 415L89 414M119 414L120 415L119 414M123 414L124 415L123 414z"></path>
      <path d="M133 414L134 415L133 414z"></path>
      <path d="M179 414L180 415L179 414z"></path>
      <path d="M180 414L177 422L184 421L180 414z"></path>
      <path d="M253 414L254 415L253 414M502 414L503 415L502 414M93 415L94 416L93 415M118 415L119 416L118 415z"></path>
      <path d="M122 415L123 416L122 415M138 415L139 416L138 415z"></path>
      <path d="M175 415L176 416L175 415M179 415L180 416L179 415z"></path>
      <path d="M185 415L186 416L185 415M93 416L93 419L94 419L93 416M118 416L119 417L118 416M135 416L136 417L135 416M175 416L176 417L175 416M178 416L179 417L178 416M182 416L183 417L182 416z"></path>
      <path d="M121 417L122 418L121 417z"></path>
      <path d="M139 417L140 418L139 417z"></path>
      <path d="M178 417L179 418L178 417M186 417L187 418L186 417M200 417L201 418L200 417z"></path>
      <path d="M201.667 417.333L202.333 417.667L201.667 417.333z"></path>
      <path d="M208 434C194.547 436.173 194.629 420.158 208 420L208 418C205.355 417.781 202.615 417.41 200.044 418.303C186.887 422.876 200.743 445.192 208 434z"></path>
      <path d="M204.667 417.333L205.333 417.667L204.667 417.333z"></path>
      <path d="M206.667 417.333L207.333 417.667L206.667 417.333M216 417L217 418L216 417z"></path>
      <path d="M217 417L217 418L222 418L217 417z"></path>
      <path d="M222 417L223 418L222 417M231 418L231 419L235 418L231 418M244 417L244 418L247 418L244 417M252 417L252 418L255 418L252 417M262 417L261 421L262 421L262 417z"></path>
      <path d="M263 417L263 418L269 418L263 417z"></path>
      <path d="M269.667 417.333L270.333 417.667L269.667 417.333M279 437L280 437C280 431.469 277.876 421.322 283 418C276.723 416.59 279 432.978 279 437M292.667 417.333L293.333 417.667L292.667 417.333M299 420L300 420L303 418L299 420M313 417L313 418L322 418L313 417M335 437L336 437L336 418L350 418L350 437C351.569 433.26 352.67 422.009 349.972 418.603C347.881 415.964 338.119 415.964 336.028 418.603C333.093 422.308 335 432.443 335 437M355 417L355 418L359 419L359 418L355 417M360 417L361 418L360 417z"></path>
      <path d="M361 417L361 418L366 418L361 417z"></path>
      <path d="M366 417L367 418L366 417M378 417L379 418L378 417z"></path>
      <path d="M379 417L379 418L385 418L379 417z"></path>
      <path d="M385.667 417.333L386.333 417.667L385.667 417.333M396 417L396 418L399 418L396 417M407 417L407 418L410 418L407 417M415 437L416 437C416 431.469 413.876 421.322 419 418C412.723 416.59 415 432.978 415 437M423 437L424 437L424 418L434 418C420.375 412.283 423 428.622 423 437M444 417L444 418L447 418L444 417M455 417L455 418L458 418L458 437L459 437C459 431.25 461.568 419.18 455 417M463 417L463 418L466 418L466 431L467 431C467 426.009 468.67 418.882 463 417M475 417L475 418L478 418L478 437L479 437C479 431.25 481.568 419.18 475 417M483 417L483 418L486 418L486 425L487 425C486.953 421.065 487.046 418.343 483 417M493 418L493 419L497 418L493 418M502 417L502 418L505 418L502 417M510 417L510 418L520 418L510 417M117 418L118 419L117 418z"></path>
      <path d="M136.333 418.667L136.667 419.333L136.333 418.667M174 418L175 419L174 418M183 418L184 419L183 418M198 418L199 419L198 418M214 418L215 419L214 418z"></path>
      <path d="M215.189 418.742C206.409 422.618 211.549 440.267 221.981 436.254C231.965 432.413 226.804 413.615 215.189 418.742z"></path>
      <path d="M223 418L224 419L223 418z"></path>
      <path d="M232 418L232 437L246 436L247 441L249 441L249 434L246 434L246 418L244 418L244 434L235 434L235 418L232 418z"></path>
      <path d="M243 418L243 430L244 430L243 418M246 418L246 434L247 434L246 418z"></path>
      <path d="M252 418L253 437L254 437L255 418L252 418M262 418L262 420C263.77 420.021 274.127 421.238 269.534 424.977C267.262 426.826 263.764 425.559 261.434 427.603C256.911 431.573 261.173 436.64 265.997 436.791C269.016 436.885 271.937 435.906 275 436C275 424.479 275.139 418.009 262 418z"></path>
      <path d="M271 418L272 419L271 418z"></path>
      <path d="M272 418L273 419L272 418z"></path>
      <path d="M280 418L281 437L294 436L294 441L297 441L297 434L294 434L294 418L292 418L292 434L282 434L282 418L280 418z"></path>
      <path d="M282 418L282 434L283 434L282 418M291 418L291 434L292 434L291 418M294 418L294 434L295 434L294 418z"></path>
      <path d="M300 418L301 437L302 437L303 418L300 418z"></path>
      <path d="M310 418L311 419L310 418z"></path>
      <path d="M312 428L307 437L319 429L319 436L322 436L322 418C316.51 418 300.166 421.474 312 428M336 418L336 437C340.796 433.541 339 425.385 339 420C353.237 420.168 342.93 431.273 350 437L350 418L336 418z"></path>
      <path d="M355 418L355 444L356 444L355 418z"></path>
      <path d="M356 418L356 444L358 444L358 437C366.046 436.932 378.251 427.98 368.566 419.742C365.317 416.979 359.928 418.286 356 418z"></path>
      <path d="M367 418L368 419L367 418M377.333 418.667L377.667 419.333L377.333 418.667z"></path>
      <path d="M378 418L378 420C380.103 420 392.242 421.558 386 425.5C382.975 427.411 370.746 425.548 375.5 434C378.451 439.246 385.823 435.657 390 437C390 425.422 391.724 418.009 378 418z"></path>
      <path d="M387 418L388 419L387 418M395 418L396 419L395 418z"></path>
      <path d="M396 418L396 437L410 436L410 441L413 441L413 434L410 434L410 418L408 418L408 434L398 434L398 418L396 418z"></path>
      <path d="M398 418L398 434L399 434L398 418M407 418L407 434L408 434L407 418M410 418L411 419L410 418z"></path>
      <path d="M416 418L416 437C421.071 433.343 419 423.706 419 418L416 418M424 418L424 436C427.91 436.407 433.257 437.711 436.696 435.051C439.958 432.528 439.06 421.436 435.682 419.179C432.624 417.135 427.497 418 424 418z"></path>
      <path d="M435 418L436 419L435 418z"></path>
      <path d="M436 418L437 419L436 418z"></path>
      <path d="M443 418L443 436L444 436L443 418z"></path>
      <path d="M444 418L444 437L446 437L446 428L456 428L457 437L458 437L458 418L456 418C455.771 425.036 452.473 425.977 446 426L446 418L444 418z"></path>
      <path d="M446 418L446 426L447 426L446 418M455 418L455 425L456 425L455 418z"></path>
      <path d="M463 418L463 436L466 437L474 422L475 422L476 437L477 437L478 418C472.029 419.752 469.278 425.564 467 431L466 431L466 418L463 418z"></path>
      <path d="M474 418L475 419L474 418z"></path>
      <path d="M483 418L484 437L485 437C488.874 424.056 489.409 432.303 498 437C495.478 428.429 493.241 426.684 497 418L486 425L486 418L483 418z"></path>
      <path d="M501 418L502 419L501 418z"></path>
      <path d="M502 418L502 437L503 437L504 418L502 418z"></path>
      <path d="M504 418L503 437C506.686 433.779 505.803 422.298 504 418M509.333 418.667L509.667 419.333L509.333 418.667z"></path>
      <path d="M510 418L510 437C513.845 436.153 520.371 437.523 523.253 434.41C525.191 432.318 524.409 429.513 524.13 427C523.082 417.572 518.565 418 510 418z"></path>
      <path d="M521 418L522 419L521 418z"></path>
      <path d="M89 419L90 420L89 419M93 419L94 420L93 419z"></path>
      <path d="M117.333 419.667L117.667 420.333L117.333 419.667z"></path>
      <path d="M156 419L157 420L156 419z"></path>
      <path d="M157 419C152.873 425.156 151.264 430.99 159 435C156.776 427.914 156.95 426.117 159 419L157 419z"></path>
      <path d="M159 419L160 420L159 419z"></path>
      <path d="M164 419L159 427L159 428L167 435C163.514 428.328 164.115 425.75 167 419L164 419z"></path>
      <path d="M177 419L178 420L177 419z"></path>
      <path d="M183 419L184 420L183 419M187 419L188 420L187 419M225 419L226 420L225 419M273 419L274 420L273 419M369 419L370 420L369 419M389 419L390 420L389 419M395 419L395 423L396 423L395 419M410 419L410 434L411 434L410 419z"></path>
      <path d="M437 419L438 420L437 419z"></path>
      <path d="M473 419L474 420L473 419z"></path>
      <path d="M483 419L483 429L484 429L483 419M493 419L494 420L493 419M496 419L497 420L496 419z"></path>
      <path d="M501 419L501 435L502 435L501 419M523 419L524 420L523 419M88 420L89 421L88 420z"></path>
      <path d="M92 420L93 421L92 420M120 420L120 427L121 427L120 420z"></path>
      <path d="M136 420L137 421L136 420M159 420L160 421L159 420z"></path>
      <path d="M163 420L164 421L163 420M166 420L167 421L166 420z"></path>
      <path d="M173 420L174 421L173 420z"></path>
      <path d="M184 420L185 421L184 420M187 420L188 421L187 420M200 420L201 421L200 420z"></path>
      <path d="M206.667 420.333L207.333 420.667L206.667 420.333z"></path>
      <path d="M212 420L213 421L212 420z"></path>
      <path d="M216 420L215 422L216 420z"></path>
      <path d="M217.144 421.072C211.145 424.232 214.814 437.474 221.567 432.968C226.221 429.862 223.842 417.544 217.144 421.072z"></path>
      <path d="M221 420L222 421L221 420z"></path>
      <path d="M262 420L263 421L262 420z"></path>
      <path d="M269 420L270 421L269 420z"></path>
      <path d="M313 420L314 421L313 420z"></path>
      <path d="M314 420L314 421L319 421L314 420M339 420L339 421L347 421L339 420M360 420L361 421L360 420z"></path>
      <path d="M359 434C360.848 433.978 363.044 434.196 364.776 433.397C375.231 428.571 359.299 411.623 359.005 427.002C358.96 429.333 359 431.669 359 434z"></path>
      <path d="M365 420L366 421L365 420M377 420L377 421L380 421L377 420M385 420L386 421L385 420M427 420L428 421L427 420z"></path>
      <path d="M428 420L429 421L428 420z"></path>
      <path d="M429 420L429 421L433 421L429 420z"></path>
      <path d="M433 420L434 421L433 420z"></path>
      <path d="M438 420L439 421L438 420M509 420L510 421L509 420z"></path>
      <path d="M512 420C512.422 425.411 514.983 425.941 520 426L520 425L513 425L512 420z"></path>
      <path d="M513 420L513 421L518 421L513 420z"></path>
      <path d="M518.667 420.333L519.333 420.667L518.667 420.333z"></path>
      <path d="M79 421L79 425L80 425L79 421z"></path>
      <path d="M80 421L80 422L87 422L80 421M155 421L156 422L155 421M158 421L159 422L158 421z"></path>
      <path d="M162 421L163 422L162 421z"></path>
      <path d="M173 421L174 422L173 421M178 421L178 422L184 422L178 421M195 421L196 422L195 421z"></path>
      <path d="M199 421L200 422L199 421M211 421L212 422L211 421z"></path>
      <path d="M226 421L227 422L226 421z"></path>
      <path d="M231 421L231 426L232 426L231 421z"></path>
      <path d="M274.333 421.667L274.667 422.333L274.333 421.667z"></path>
      <path d="M299 421L299 433L300 433L299 421M307 421L308 422L307 421M311 421L312 422L311 421z"></path>
      <path d="M319 426L319 421C310.615 421.099 310.562 426.607 319 426z"></path>
      <path d="M347 421L347 435L348 435L347 421M358 421L359 422L358 421M370 421L371 422L370 421z"></path>
      <path d="M390 421L391 422L390 421z"></path>
      <path d="M427 421L427 425L435 425L435 421L427 421z"></path>
      <path d="M435 421L436 422L435 421M438 421L438 424L439 424L438 421M472 421L473 422L472 421M492 421L493 422L492 421M495 421L496 422L495 421M509 421L510 422L509 421z"></path>
      <path d="M513 421L513 425L521 425L521 421L513 421z"></path>
      <path d="M524 421L525 422L524 421z"></path>
      <path d="M90 422L91 423L90 422z"></path>
      <path d="M140 422L140 426L141 426L140 422M154 422L155 423L154 422M165 422L166 423L165 422M176.667 422.333L177.333 422.667L176.667 422.333M188 422L189 423L188 422z"></path>
      <path d="M198 422L199 423L198 422M214 422L215 423L214 422z"></path>
      <path d="M223 422L224 423L223 422z"></path>
      <path d="M271 422L272 423L271 422M307 422L307 425L308 425L307 422z"></path>
      <path d="M358 422L358 433L359 433L358 422M367 422L368 423L367 422z"></path>
      <path d="M387 422L388 423L387 422M390 422L390 437L391 437L390 422z"></path>
      <path d="M435.333 422.667L435.667 423.333L435.333 422.667z"></path>
      <path d="M463 422L464 423L463 422z"></path>
      <path d="M471 422L472 423L471 422z"></path>
      <path d="M474 422L475 423L474 422M491 422L492 423L491 422z"></path>
      <path d="M509 422L509 432L510 432L509 422z"></path>
      <path d="M521.333 422.667L521.667 423.333L521.333 422.667M524.333 422.667L524.667 423.333L524.333 422.667M91 423L92 424L91 423M157 423L158 424L157 423M161 423L162 424L161 423z"></path>
      <path d="M172 423L173 424L172 423z"></path>
      <path d="M177 423L186 425L186 424L177 423M188 423L189 424L188 423z"></path>
      <path d="M194 423L195 424L194 423M227.333 423.667L227.667 424.333L227.333 423.667M271.333 423.667L271.667 424.333L271.333 423.667z"></path>
      <path d="M310.333 423.667L310.667 424.333L310.333 423.667z"></path>
      <path d="M371 423L372 424L371 423M387.333 423.667L387.667 424.333L387.333 423.667z"></path>
      <path d="M395 423L396 424L395 423z"></path>
      <path d="M490 423L491 424L490 423M494 423L495 424L494 423z"></path>
      <path d="M80 424L80 425L88 425L80 424M153 424L154 425L153 424z"></path>
      <path d="M160 424L161 425L160 424M164 424L165 425L164 424z"></path>
      <path d="M172 424L173 425L172 424M175 424L176 425L175 424M194 424L194 431L195 431L194 424M197.333 424.667L197.667 425.333L197.333 424.667z"></path>
      <path d="M210 424L211 425L210 424z"></path>
      <path d="M224 424L224 430L225 430L224 424M368 424L368 427L369 427L368 424M371 424L371 430L372 430L371 424z"></path>
      <path d="M395 424L395 435L396 435L395 424z"></path>
      <path d="M435 424L436 425L435 424z"></path>
      <path d="M438 424L439 425L438 424z"></path>
      <path d="M463 424L464 425L463 424z"></path>
      <path d="M473 424L474 425L473 424M488 424L489 425L488 424z"></path>
      <path d="M489 424L490 425L489 424z"></path>
      <path d="M493 424L494 425L493 424M524 424L525 425L524 424z"></path>
      <path d="M89 425L90 426L89 425M93 425L94 426L93 425M156 425L157 426L156 425M160 425L161 426L160 425M163 425L164 426L163 425z"></path>
      <path d="M175 425L176 426L175 425M189 425L190 426L189 425z"></path>
      <path d="M210 425L210 429L211 429L210 425M213 425L213 430L214 430L213 425M227 425L227 430L228 430L227 425z"></path>
      <path d="M263 425L264 426L263 425z"></path>
      <path d="M264 425L264 426L271 426L264 425z"></path>
      <path d="M311 425L312 426L311 425M379 425L380 426L379 425z"></path>
      <path d="M380 425L380 426L387 426L380 425M427 425L427 426L435 426L427 425z"></path>
      <path d="M447 425L447 426L455 426L447 425M469 425L470 426L469 425z"></path>
      <path d="M472 425L473 426L472 425z"></path>
      <path d="M492 425L493 426L492 425z"></path>
      <path d="M90 426L91 427L90 426z"></path>
      <path d="M94 426L95 427L94 426z"></path>
      <path d="M117.333 426.667L117.667 427.333L117.333 426.667z"></path>
      <path d="M136.333 426.667L136.667 427.333L136.333 426.667z"></path>
      <path d="M159 426L160 427L159 426M171 426L172 427L171 426M186 426L187 427L186 426z"></path>
      <path d="M197 426L197 429L198 429L197 426M261 426L262 427L261 426z"></path>
      <path d="M308 426L309 427L308 426M312 426L313 427L312 426z"></path>
      <path d="M313 426L314 427L313 426M315 426L315 427L318 427L315 426z"></path>
      <path d="M318 426L319 427L318 426M377 426L378 427L377 426M94 427L94 431L95 431L94 427M155 427L156 428L155 427M174 427L175 428L174 427z"></path>
      <path d="M186 427L187 428L186 427M231 427L232 428L231 427z"></path>
      <path d="M260 427L261 428L260 427M309 427L310 428L309 427z"></path>
      <path d="M368 427L369 428L368 427z"></path>
      <path d="M376 427L377 428L376 427M437 427L438 428L437 427M468 427L469 428L468 427z"></path>
      <path d="M471 427L472 428L471 427z"></path>
      <path d="M488 427L489 428L488 427M523 427L524 428L523 427z"></path>
      <path d="M117 428L118 429L117 428z"></path>
      <path d="M136 428L137 429L136 428M152 428L153 429L152 428z"></path>
      <path d="M159 428L160 429L159 428M163 428L164 429L163 428M174 428L175 429L174 428M190 428L191 429L190 428M259 428L260 429L259 428z"></path>
      <path d="M263 428L262 430L263 428z"></path>
      <path d="M264 428L265 429L264 428z"></path>
      <path d="M271 428C256.008 428.363 270.097 439.593 271 428z"></path>
      <path d="M271 428L271 433L272 433L271 428M310 428L312 430L310 428z"></path>
      <path d="M311 428L312 429L311 428M368.333 428.667L368.667 429.333L368.333 428.667z"></path>
      <path d="M375 428L376 429L375 428z"></path>
      <path d="M379 428L378 430L379 428z"></path>
      <path d="M380 428L381 429L380 428z"></path>
      <path d="M387 428C371.581 428.373 386.095 439.614 387 428z"></path>
      <path d="M387 428L387 432L388 432L387 428z"></path>
      <path d="M427 428L427 434C431.531 433.959 435.121 434.064 436 429L427 428z"></path>
      <path d="M428.667 428.333L429.333 428.667L428.667 428.333M431 428L431 429L435 429L431 428z"></path>
      <path d="M438 428L439 429L438 428M446 428L446 436L447 436L446 428z"></path>
      <path d="M447 428L447 429L455 429L447 428z"></path>
      <path d="M455 428L457 437L455 428M470 428L471 429L470 428z"></path>
      <path d="M486 428L486 437L487 437L486 428z"></path>
      <path d="M512 428L512 434L513 434L512 428z"></path>
      <path d="M513 428L513 434C517.16 433.951 519.888 433.83 522 430L513 428z"></path>
      <path d="M514 428L514 429L521 429L514 428z"></path>
      <path d="M524 428L525 429L524 428M91 429L92 430L91 429z"></path>
      <path d="M121 429L122 430L121 429z"></path>
      <path d="M139 429L140 430L139 429M153 429L154 430L153 429M156 429L157 430L156 429M160 429L161 430L160 429z"></path>
      <path d="M170 429L171 430L170 429z"></path>
      <path d="M187 429L188 430L187 429M190 429L191 430L190 429M197.333 429.667L197.667 430.333L197.333 429.667z"></path>
      <path d="M210.333 429.667L210.667 430.333L210.333 429.667M231 429L231 433L232 433L231 429z"></path>
      <path d="M259 429L260 430L259 429M316 429L317 430L316 429z"></path>
      <path d="M317 429L318 430L317 429z"></path>
      <path d="M467 429L468 430L467 429z"></path>
      <path d="M470 429L471 430L470 429z"></path>
      <path d="M494 429L495 430L494 429z"></path>
      <path d="M521 429L522 430L521 429z"></path>
      <path d="M121 430L122 431L121 430z"></path>
      <path d="M135 430L136 431L135 430M139 430L140 431L139 430M153 430L154 431L153 430M157 430L158 431L157 430M164 430L165 431L164 430z"></path>
      <path d="M170 430L171 431L170 430M173 430L174 431L173 430z"></path>
      <path d="M187 430L188 431L187 430M227 430L228 431L227 430M243 430L243 433L244 433L243 430M262 430L263 431L262 430M310 430L311 431L310 430M315 430L316 431L315 430M371 430L372 431L371 430M439 430L439 433L440 433L439 430z"></path>
      <path d="M469 430L470 431L469 430M483 430L483 437L484 437L483 430z"></path>
      <path d="M495 430L496 431L495 430M90 431L91 432L90 431M94 431L95 432L94 431M118 431L119 432L118 431M122 431L123 432L122 431z"></path>
      <path d="M154 431L155 432L154 431z"></path>
      <path d="M161 431L162 432L161 431M165 431L166 432L165 431M173 431L174 432L173 431M191 431L192 432L191 431M194 431L195 432L194 431M214 431L215 432L214 431M223 431L224 432L223 431M309 431L310 432L309 431z"></path>
      <path d="M313 431L314 432L313 431z"></path>
      <path d="M367 431L368 432L367 431M374 431L375 432L374 431M492 431L493 432L492 431M89 432L90 433L89 432M123 432L124 433L123 432z"></path>
      <path d="M134 432L135 433L134 432z"></path>
      <path d="M138 432L139 433L138 432M158 432L159 433L158 432z"></path>
      <path d="M162 432L163 433L162 432M165 432L166 433L165 432z"></path>
      <path d="M169 432L170 433L169 432z"></path>
      <path d="M191 432L192 433L191 432M198 432L199 433L198 432M211 432L212 433L211 432M214 432L215 433L214 432M223 432L224 433L223 432z"></path>
      <path d="M262 432L263 433L262 432M308 432L309 433L308 432z"></path>
      <path d="M312 432L313 433L312 432M370 432L371 433L370 432M387 432L388 433L387 432M468 432L469 433L468 432M496 432L497 433L496 432M509 432L510 433L509 432z"></path>
      <path d="M521 432L522 433L521 432M78 433L78 434L87 434L78 433z"></path>
      <path d="M87 433L88 434L87 433z"></path>
      <path d="M93 433L94 434L93 433M119 433L120 434L119 433z"></path>
      <path d="M124 433L125 434L124 433z"></path>
      <path d="M125 433L126 434L125 433M132 433L133 434L132 433z"></path>
      <path d="M137 433L138 434L137 433z"></path>
      <path d="M155 433L156 434L155 433z"></path>
      <path d="M169 433L170 434L169 433M188 433L189 434L188 433z"></path>
      <path d="M195 433L196 434L195 433z"></path>
      <path d="M199 433L200 434L199 433M215 433L216 434L215 433M222 433L223 434L222 433z"></path>
      <path d="M226 433L227 434L226 433z"></path>
      <path d="M243 433L244 434L243 433M270 433L271 434L270 433M311 433L312 434L311 433M358 433L359 434L358 433M366 433L367 434L366 433M386 433L387 434L386 433z"></path>
      <path d="M434 433L435 434L434 433z"></path>
      <path d="M435 433L436 434L435 433z"></path>
      <path d="M493 433L494 434L493 433M497 433L498 434L497 433M509.333 433.667L509.667 434.333L509.333 433.667M520 433L521 434L520 433z"></path>
      <path d="M524 433L525 434L524 433z"></path>
      <path d="M92 434L93 435L92 434z"></path>
      <path d="M99 434L100 435L99 434z"></path>
      <path d="M120 434L121 435L120 434z"></path>
      <path d="M127 434L127 435L130 435L127 434M136 434L137 435L136 434M156 434L157 435L156 434M159 434L157 435L157 436L159 434z"></path>
      <path d="M163 434L164 435L163 434z"></path>
      <path d="M172 434L173 435L172 434M196 434L197 435L196 434M201 434L201 435L206 435L201 434z"></path>
      <path d="M212 434L213 435L212 434z"></path>
      <path d="M217 434L218 435L217 434z"></path>
      <path d="M218 434L219 435L218 434z"></path>
      <path d="M219.667 434.333L220.333 434.667L219.667 434.333M225 434L226 435L225 434z"></path>
      <path d="M231.333 434.667L231.667 435.333L231.333 434.667M249 434L249 441L250 441L249 434M259 434L260 435L259 434z"></path>
      <path d="M264 434L264 435L269 435L264 434z"></path>
      <path d="M297 434L298 435L297 434M299.333 434.667L299.667 435.333L299.333 434.667z"></path>
      <path d="M307 434L308 435L307 434M361 434L361 435L365 435L361 434z"></path>
      <path d="M369 434L370 435L369 434M375 434L376 435L375 434z"></path>
      <path d="M380.667 434.333L381.333 434.667L380.667 434.333z"></path>
      <path d="M382 434L383 435L382 434z"></path>
      <path d="M383.667 434.333L384.333 434.667L383.667 434.333z"></path>
      <path d="M438 434L439 435L438 434z"></path>
      <path d="M463 434L464 435L463 434M467 434L468 435L467 434M494 434L495 435L494 434M497 434L498 435L497 434z"></path>
      <path d="M524 434L525 435L524 434z"></path>
      <path d="M90 435L91 436L90 435z"></path>
      <path d="M91 435L92 436L91 435z"></path>
      <path d="M122 435L123 436L122 435z"></path>
      <path d="M135 435L136 436L135 435M159 435L160 436L159 435M164 435L165 436L164 435z"></path>
      <path d="M165.667 435.333L166.333 435.667L165.667 435.333z"></path>
      <path d="M172 435L173 436L172 435M192 435L193 436L192 435z"></path>
      <path d="M197 435L198 436L197 435z"></path>
      <path d="M208 435L209 436L208 435z"></path>
      <path d="M213 435L214 436L213 435M224 435L225 436L224 435M260 435L261 436L260 435M271 435L272 436L271 435z"></path>
      <path d="M306.333 435.667L306.667 436.333L306.333 435.667M310 435L311 436L310 435M368 435L369 436L368 435z"></path>
      <path d="M376 435L377 436L376 435M387 435L388 436L387 435M395 435L396 436L395 435M437 435L438 436L437 435z"></path>
      <path d="M494 435L495 436L494 435z"></path>
      <path d="M501 435L502 436L501 435M509 435L510 436L509 435z"></path>
      <path d="M523 435L524 436L523 435z"></path>
      <path d="M76 436L76 437L79 437L76 436M80 436L80 437L88 437L80 436z"></path>
      <path d="M88 436L89 437L88 436z"></path>
      <path d="M99.6667 436.333L100.333 436.667L99.6667 436.333z"></path>
      <path d="M102 436L103 437L102 436M123 436L124 437L123 436z"></path>
      <path d="M124 436L125 437L124 436M132 436L133 437L132 436z"></path>
      <path d="M133 436L134 437L133 436M168 436L169 437L168 436z"></path>
      <path d="M171 436L172 437L171 436M189 436L190 437L189 436M192 436L193 437L192 436M199 436L200 437L199 436M207 436L208 437L207 436M215 436L216 437L215 436M222 436L223 437L222 436M234 436L234 437L243 437L234 436M244.667 436.333L245.333 436.667L244.667 436.333M252 436L253 437L252 436M254 436L255 437L254 436M262 436L263 437L262 436M269 436L270 437L269 436z"></path>
      <path d="M270 436L271 437L270 436z"></path>
      <path d="M272 436L272 437L275 437L272 436M280 436L281 437L280 436M282 436L283 437L282 436M284 436L284 437L294 437L284 436M300 436L301 437L300 436M302 436L303 437L302 436M309 436L310 437L309 436M319 436L319 437L322 437L319 436M337.667 436.333L338.333 436.667L337.667 436.333M347.667 436.333L348.333 436.667L347.667 436.333M365 436L366 437L365 436z"></path>
      <path d="M366 436L367 437L366 436M377 436L378 437L377 436z"></path>
      <path d="M378 436L379 437L378 436M385 436L386 437L385 436z"></path>
      <path d="M395 436L396 437L395 436z"></path>
      <path d="M397 436L397 437L404 437L397 436M405.667 436.333L406.333 436.667L405.667 436.333M408.667 436.333L409.333 436.667L408.667 436.333M417.667 436.333L418.333 436.667L417.667 436.333M424 436L424 437L428 437L424 436M429 436L430 437L429 436M431 436L432 437L431 436M433 436L433 437L436 437L433 436z"></path>
      <path d="M443 436L444 437L443 436M446 436L447 437L446 436z"></path>
      <path d="M463.667 436.333L464.333 436.667L463.667 436.333M466 436L467 437L466 436M475 436L476 437L475 436M477 436L478 437L477 436M485 436L486 437L485 436M495 436L496 437L495 436z"></path>
      <path d="M501 436L502 437L501 436M509 436L510 437L509 436z"></path>
      <path d="M511 436L511 437L517 437L511 436M518 436L518 437L521 437L518 436z"></path>
      <path d="M521 436L522 437L521 436M127 437L127 438L130 438L127 437M202 437L202 438L205 438L202 437M218.667 437.333L219.333 437.667L218.667 437.333z"></path>
      <path d="M246 437L246 441L247 441L246 437z"></path>
      <path d="M265.667 437.333L266.333 437.667L265.667 437.333M358 437L358 444L359 444L358 437M361.667 437.333L362.333 437.667L361.667 437.333M381.667 437.333L382.333 437.667L381.667 437.333M297.333 439.667L297.667 440.333L297.333 439.667M356.667 444.333L357.333 444.667L356.667 444.333M235 456L235 457L237 460L238 460L235 456M317 456L317 457L320 457L317 456M322 460L323 460L326 457L322 460M393 456L393 457L396 457L393 456z"></path>
      <path d="M234 457L234 460L237 457L234 457M317 457L317 460L320 460L320 457L317 457M323 457L323 460L326 460L326 457L323 457M393 457L393 460L396 460L396 457L393 457z"></path>
      <path d="M234 458L235 459L234 458z"></path>
      <path d="M316 459L317 460L316 459M234 460L235 461L234 460z"></path>
      <path d="M235.667 460.333L236.333 460.667L235.667 460.333M393 460L394 461L393 460z"></path>
      <path d="M394 460L395 461L394 460z"></path>
      <path d="M395 460L396 461L395 460z"></path>
      <path d="M174 463L174 464L178 464L174 463M305 463L305 464L309 464L305 463M342 463L342 464L346 464L342 463M363 463L363 464L368 464L363 463z"></path>
      <path d="M151 464L147 487L150 487L150 483L162 483L165 487L162 464L151 464z"></path>
      <path d="M162 464L162 480L163 480L162 464M171 464L172 465L171 464z"></path>
      <path d="M172.109 464.743C162.756 468.703 168.036 486.629 178.956 482.396C188.956 478.519 183.265 460.02 172.109 464.743z"></path>
      <path d="M179 464L180 465L179 464M188 464L188 483L189 483L188 464z"></path>
      <path d="M189 464L189 483L211 483L211 464L208 464L208 481L201 481L201 464L198 464L199 480L191 481L191 464L189 464z"></path>
      <path d="M191 464L191 481L198 481L198 480L192 480L191 464z"></path>
      <path d="M201 464L201 480L202 480L201 464z"></path>
      <path d="M216 464L216 483L219 483L219 474L231 483L224 473L224 472L230 464L219 472L219 464L216 464z"></path>
      <path d="M226 464L227 465L226 464z"></path>
      <path d="M234 464L235 483L237 483L237 464L234 464z"></path>
      <path d="M237 464L237 483L238 483L237 464z"></path>
      <path d="M245 464L241 483C245.164 481.747 253.125 457.745 253.981 473.001C254.055 474.326 253.999 475.669 254 476.995L254 483L256 483L256 464L245 464z"></path>
      <path d="M256 464L256 483L257 483L256 464M261 464L261 483L262 483L261 464z"></path>
      <path d="M262 464L262 483C265.354 483 269.782 483.66 272.771 481.821C282.156 476.045 268.549 472.004 264 472L264 464L262 464z"></path>
      <path d="M264 464L265 465L264 464z"></path>
      <path d="M279 464L279 475L280 475L279 464z"></path>
      <path d="M280 464L280 483L282 483C282.128 472.19 291.872 472.19 292 483L294 483L294 464L292 464L292 472L282 472L282 464L280 464z"></path>
      <path d="M282 464L282 472L283 472L282 464M291 464L291 472L292 472L291 464z"></path>
      <path d="M294 464L294 483L295 483L294 464M302 464L303 465L302 464z"></path>
      <path d="M303 464L304 465L303 464z"></path>
      <path d="M304.044 464.743C294.082 468.73 299.718 487.037 310.891 482.258C319.626 478.521 314.645 460.501 304.044 464.743z"></path>
      <path d="M311 464L312 465L311 464z"></path>
      <path d="M320 464L320 483L323 483L323 464L320 464z"></path>
      <path d="M339 464L337 467L339 464z"></path>
      <path d="M340 464L341 465L340 464z"></path>
      <path d="M341.055 464.743C331.266 468.731 336.776 486.987 347.892 482.258C357.476 478.18 351.999 460.285 341.055 464.743z"></path>
      <path d="M348 464L349 465L348 464z"></path>
      <path d="M360 464L361 465L360 464z"></path>
      <path d="M370 483L370 481C356.394 480.839 356.862 464.189 370 467C367.386 454.8 344.199 478.417 362 482.75C364.516 483.362 367.425 483 370 483M373 464L373 483C377.07 483 395.552 481.533 386 474C390.184 463.849 380.515 464 373 464z"></path>
      <path d="M384 464L385 465L384 464z"></path>
      <path d="M385 464L386 465L385 464z"></path>
      <path d="M393 464L393 483L396 483L396 464L393 464M399 464L399 466L405 466L405 483L408 483L408 466L414 464L399 464M417 464L417 483C422.678 481.224 425.833 473.229 428 468L429 468L429 483L432 483L432 464C425.817 465.815 422.697 472.124 421 478L420 478L420 464L417 464z"></path>
      <path d="M428 464L429 465L428 464z"></path>
      <path d="M181 465L182 466L181 465M229 465L230 466L229 465z"></path>
      <path d="M234 465L234 483L235 483L234 465z"></path>
      <path d="M264 465L267 472L267 471L264 465z"></path>
      <path d="M301 465L302 466L301 465M312 465L313 466L312 465z"></path>
      <path d="M350 465L351 466L350 465z"></path>
      <path d="M359 465L360 466L359 465M386 465L387 466L386 465z"></path>
      <path d="M427 465L428 466L427 465z"></path>
      <path d="M436 465L436 466L440 467L440 466L436 465M443 467L447 467L443 467M155 466L155 467L159 467L155 466M173 466L174 467L173 466z"></path>
      <path d="M174 466L174 467L177 467L174 466z"></path>
      <path d="M177 466L178 467L177 466z"></path>
      <path d="M182 466L183 467L182 466M225 466L226 467L225 466z"></path>
      <path d="M249 466L249 467L253 467L249 466M300 466L301 467L300 466z"></path>
      <path d="M305 466L305 467L309 467L305 466z"></path>
      <path d="M309 466L310 467L309 466M313 466L314 467L313 466M342 466L343 467L342 466z"></path>
      <path d="M343 466L343 467L346 467L343 466z"></path>
      <path d="M346 466L347 467L346 466M358 466L359 467L358 466z"></path>
      <path d="M363 466L363 467L368 467L363 466z"></path>
      <path d="M368 466L369 467L368 466M377 466L377 467L382 467L377 466z"></path>
      <path d="M387 466L388 467L387 466z"></path>
      <path d="M399 466L399 467L405 467L399 466M408 466L408 467L411 467L408 466M412.667 466.333L413.333 466.667L412.667 466.333z"></path>
      <path d="M436 466C439.404 472.541 438.756 475.36 436 482L444 474L436 466M444 466C446.542 473.034 446.039 474.923 444 482C451.205 477.941 451.472 469.821 444 466z"></path>
      <path d="M154 467L153 480L159 480L159 467L154 467z"></path>
      <path d="M159 467L159 480L160 480L159 467z"></path>
      <path d="M168 467L169 468L168 467z"></path>
      <path d="M172 467L171 469L172 467z"></path>
      <path d="M173.317 468.032C168.703 471.021 171.17 483.2 177.725 479.727C183.574 476.628 180.147 463.607 173.317 468.032z"></path>
      <path d="M179 467L180 468L179 467M218 467L219 468L218 467M228 467L229 468L228 467z"></path>
      <path d="M253.333 467.667L253.667 468.333L253.333 467.667M299 467L300 468L299 467z"></path>
      <path d="M303 467L304 468L303 467z"></path>
      <path d="M304.434 468.032C299.249 471.477 303.487 483.839 309.683 479.214C314.567 475.568 311.011 463.663 304.434 468.032z"></path>
      <path d="M310 467L311 468L310 467M314 467L315 468L314 467z"></path>
      <path d="M340 467L341 468L340 467z"></path>
      <path d="M341.513 468.029C336.724 471.431 340.153 483.366 346.571 479.638C352.267 476.33 348.391 463.142 341.513 468.029z"></path>
      <path d="M351 467L352 468L351 467M357 467L358 468L357 467z"></path>
      <path d="M361 467L362 468L361 467z"></path>
      <path d="M376 467L377 471L385 470L385 468L376 467z"></path>
      <path d="M384 467L385 468L384 467M426 467L427 468L426 467z"></path>
      <path d="M440 467L441 468L440 467M447 467L448 468L447 467M183 468L184 469L183 468z"></path>
      <path d="M224 468L225 469L224 468z"></path>
      <path d="M244 468L244 474L245 474L244 468z"></path>
      <path d="M299 468L300 469L299 468M311 468L312 469L311 468z"></path>
      <path d="M336 468L337 469L336 468M348 468L349 469L348 468z"></path>
      <path d="M360 468L361 469L360 468z"></path>
      <path d="M376 468L376 472L384 472L384 471L376 468M425 468L426 469L425 468z"></path>
      <path d="M428 468L429 469L428 468M437 468L438 469L437 468M440 468L441 469L440 468z"></path>
      <path d="M444 468L445 469L444 468M167 469L168 470L167 469M180.333 469.667L180.667 470.333L180.333 469.667z"></path>
      <path d="M223 469L224 470L223 469M253.333 469.667L253.667 470.333L253.333 469.667z"></path>
      <path d="M302 469L303 470L302 469M315.333 469.667L315.667 470.333L315.333 469.667z"></path>
      <path d="M336 469L337 470L336 469M339 469L340 470L339 469z"></path>
      <path d="M352 469L353 470L352 469M356 469L357 470L356 469M388 469L389 470L388 469M424 469L425 470L424 469M441 469L442 470L441 469z"></path>
      <path d="M445 469L446 470L445 469M448 469L449 470L448 469M167.333 470.667L167.667 471.333L167.333 470.667M170 470L171 471L170 470M222 470L223 471L222 470z"></path>
      <path d="M226 470L227 471L226 470M298 470L298 473L299 473L298 470z"></path>
      <path d="M312 470L312 473L313 473L312 470z"></path>
      <path d="M339 470L340 471L339 470z"></path>
      <path d="M349 470L350 471L349 470M352 470L353 471L352 470M356 470L357 471L356 470M359 470L360 471L359 470z"></path>
      <path d="M384 470L385 471L384 470M427 470L428 471L427 470z"></path>
      <path d="M438 470L439 471L438 470z"></path>
      <path d="M449 470L450 471L449 470M170 471L170 476L171 476L170 471M184 471L184 476L185 476L184 471M219 471L220 472L219 471z"></path>
      <path d="M220 471L221 472L220 471z"></path>
      <path d="M225 471L226 472L225 471M253 471L254 472L253 471z"></path>
      <path d="M264 471L265 472L264 471M267 471L267 472L270 472L267 471z"></path>
      <path d="M270 471L271 472L270 471M289 471L290 472L289 471z"></path>
      <path d="M301 471L301 476L302 476L301 471M315 471L315 477L316 477L315 471z"></path>
      <path d="M349.333 471.667L349.667 472.333L349.333 471.667M359 471L359 476L360 476L359 471z"></path>
      <path d="M387 471L388 472L387 471M423 471L424 472L423 471M426 471L427 472L426 471M442 471L443 472L442 471M446 471L447 472L446 471M224 472L225 473L224 472M253 472L253 481L254 481L253 472z"></path>
      <path d="M273 472L274 473L273 472M335 472L335 475L336 475L335 472z"></path>
      <path d="M386.333 472.667L386.667 473.333L386.333 472.667M425 472L426 473L425 472z"></path>
      <path d="M439 472L440 473L439 472M443 472L444 473L443 472z"></path>
      <path d="M450 472L451 473L450 472z"></path>
      <path d="M225 473L226 474L225 473z"></path>
      <path d="M247.333 473.667L247.667 474.333L247.333 473.667M274 473L275 474L274 473M298.333 473.667L298.667 474.333L298.333 473.667z"></path>
      <path d="M312 473L313 474L312 473z"></path>
      <path d="M422 473L423 474L422 473z"></path>
      <path d="M425 473L426 474L425 473z"></path>
      <path d="M447 473L448 474L447 473z"></path>
      <path d="M150 474L151 475L150 474z"></path>
      <path d="M153.333 474.667L153.667 475.333L153.333 474.667M222 474L223 475L222 474z"></path>
      <path d="M226 474L227 475L226 474z"></path>
      <path d="M244.333 474.667L244.667 475.333L244.333 474.667M264.667 474.333L265.333 474.667L264.667 474.333z"></path>
      <path d="M266 474L266 475L270 475L266 474z"></path>
      <path d="M270 474L271 475L270 474z"></path>
      <path d="M275 474L276 475L275 474z"></path>
      <path d="M283 474L283 475L291 475L283 474M312 474L312 477L313 477L312 474z"></path>
      <path d="M349.333 474.667L349.667 475.333L349.333 474.667z"></path>
      <path d="M376 474L376 475L384 475L376 474z"></path>
      <path d="M421 474L422 475L421 474z"></path>
      <path d="M424 474L425 475L424 474z"></path>
      <path d="M439 474L440 475L439 474M443 474L444 475L443 474z"></path>
      <path d="M450 474L451 475L450 474M150.333 475.667L150.667 476.333L150.333 475.667M167.333 475.667L167.667 476.333L167.333 475.667M223 475L224 476L223 475z"></path>
      <path d="M247 475L248 476L247 475M264 475L264 480L265 480L264 475z"></path>
      <path d="M265 475L265 480C272.792 479.746 272.896 475.094 265 475z"></path>
      <path d="M272 475L273 476L272 475M275 475L276 476L275 475M279 475L280 476L279 475M282 475L282 483L283 483L282 475M291 475L291 483L292 483L291 475z"></path>
      <path d="M298.333 475.667L298.667 476.333L298.333 475.667M376 475L376 480L377 480L376 475z"></path>
      <path d="M377 475L377 480C381.434 479.947 384.198 479.806 385 475L377 475z"></path>
      <path d="M388.333 475.667L388.667 476.333L388.333 475.667M421 475L422 476L421 475M442 475L443 476L442 475M446 475L447 476L446 475z"></path>
      <path d="M153.333 476.667L153.667 477.333L153.333 476.667z"></path>
      <path d="M170 476L171 477L170 476z"></path>
      <path d="M180.333 476.667L180.667 477.333L180.333 476.667z"></path>
      <path d="M224 476L225 477L224 476z"></path>
      <path d="M272 476L273 477L272 476M279 476L279 481L280 481L279 476M339 476L340 477L339 476z"></path>
      <path d="M349 476L350 477L349 476M352.333 476.667L352.667 477.333L352.333 476.667M356.333 476.667L356.667 477.333L356.333 476.667M359 476L360 477L359 476M385 476L386 477L385 476z"></path>
      <path d="M420 476L421 477L420 476z"></path>
      <path d="M423 476L424 477L423 476z"></path>
      <path d="M438 476L439 477L438 476M449 476L450 477L449 476M167 477L168 478L167 477z"></path>
      <path d="M228 477L229 478L228 477z"></path>
      <path d="M302 477L303 478L302 477M315 477L316 478L315 477z"></path>
      <path d="M336.333 477.667L336.667 478.333L336.333 477.667M339 477L340 478L339 477z"></path>
      <path d="M385 477L386 478L385 477z"></path>
      <path d="M420 477L421 478L420 477M441 477L442 478L441 477M445 477L446 478L445 477M448 477L449 478L448 477z"></path>
      <path d="M149 478L150 479L149 478M171 478L172 479L171 478z"></path>
      <path d="M183 478L184 479L183 478z"></path>
      <path d="M225 478L226 479L225 478z"></path>
      <path d="M243 478L244 479L243 478M246 478L247 479L246 478z"></path>
      <path d="M272 478L273 479L272 478z"></path>
      <path d="M299 478L300 479L299 478M302 478L303 479L302 478z"></path>
      <path d="M311 478L312 479L311 478M348 478L349 479L348 478M352 478L353 479L352 478M356 478L357 479L356 478M360 478L361 479L360 478z"></path>
      <path d="M385 478L386 479L385 478M388 478L389 479L388 478z"></path>
      <path d="M422 478L423 479L422 478M437 478L438 479L437 478z"></path>
      <path d="M149 479L150 480L149 479z"></path>
      <path d="M152 479L153 480L152 479z"></path>
      <path d="M168 479L169 480L168 479M179 479L180 480L179 479M198 479L199 480L198 479M226 479L227 480L226 479M229 479L230 480L229 479z"></path>
      <path d="M242 479L243 480L242 479M246 479L247 480L246 479M271 479L272 480L271 479z"></path>
      <path d="M275 479L276 480L275 479z"></path>
      <path d="M299 479L300 480L299 479z"></path>
      <path d="M303 479L304 480L303 479z"></path>
      <path d="M310 479L311 480L310 479z"></path>
      <path d="M314 479L315 480L314 479M340 479L341 480L340 479M351 479L352 480L351 479M357 479L358 480L357 479z"></path>
      <path d="M361 479L362 480L361 479M384 479L385 480L384 479M388 479L389 480L388 479M440 479L441 480L440 479z"></path>
      <path d="M444 479L445 480L444 479M447 479L448 480L447 479M147.667 480.333L148.333 480.667L147.667 480.333M152 480L152 481L159 481L152 480M163 480L164 486L165 486L163 480M173 480L174 481L173 480z"></path>
      <path d="M174 480L175 481L174 480M177 480L178 481L177 480z"></path>
      <path d="M178 480L179 481L178 480M182 480L183 481L182 480M201 480L201 481L208 481L201 480z"></path>
      <path d="M226 480L227 481L226 480M241 480L242 481L241 480z"></path>
      <path d="M264 480L264 481L271 481L264 480z"></path>
      <path d="M275 480L276 481L275 480z"></path>
      <path d="M300 480L301 481L300 480M304 480L305 481L304 480z"></path>
      <path d="M305 480L306 481L305 480M308 480L309 481L308 480z"></path>
      <path d="M309 480L310 481L309 480z"></path>
      <path d="M337 480L338 481L337 480M342 480L343 481L342 480M345 480L346 481L345 480z"></path>
      <path d="M346 480L347 481L346 480M362 480L363 481L362 480z"></path>
      <path d="M363 480L364 481L363 480M367 480L368 481L367 480z"></path>
      <path d="M368.667 480.333L369.333 480.667L368.667 480.333M376 480L376 481L384 481L376 480z"></path>
      <path d="M421 480L422 481L421 480z"></path>
      <path d="M436 480L437 481L436 480M439 480L440 481L439 480z"></path>
      <path d="M443 480L444 481L443 480M169 481L170 482L169 481z"></path>
      <path d="M181 481L182 482L181 481M227 481L228 482L227 481M230 481L231 482L230 481z"></path>
      <path d="M240.333 481.667L240.667 482.333L240.333 481.667M245 481L246 482L245 481M253 481L254 482L253 481M274 481L275 482L274 481z"></path>
      <path d="M279 481L280 482L279 481M301 481L302 482L301 481z"></path>
      <path d="M338 481L339 482L338 481M350 481L351 482L350 481M358 481L359 482L358 481M387 481L388 482L387 481z"></path>
      <path d="M443 481L444 482L443 481z"></path>
      <path d="M446 481L447 482L446 481z"></path>
      <path d="M171 482L172 483L171 482z"></path>
      <path d="M180 482L181 483L180 482M227 482L228 483L227 482M244 482L245 483L244 482z"></path>
      <path d="M253 482L254 483L253 482M272 482L273 483L272 482z"></path>
      <path d="M273 482L274 483L273 482M279 482L280 483L279 482M302 482L303 483L302 482z"></path>
      <path d="M311 482L312 483L311 482z"></path>
      <path d="M339 482L340 483L339 482z"></path>
      <path d="M348 482L349 483L348 482M360 482L361 483L360 482M385 482L386 483L385 482z"></path>
      <path d="M420 482L421 483L420 482M150 483L151 484L150 483M161 483L161 487L162 487L161 483M173 483L174 484L173 483z"></path>
      <path d="M174 483L174 484L177 484L174 483z"></path>
      <path d="M177 483L178 484L177 483M210 483L211 484L210 483M216 483L217 484L216 483M236 483L237 484L236 483z"></path>
      <path d="M241 483L242 484L241 483z"></path>
      <path d="M242 483L243 484L242 483M280 483L281 484L280 483M304.667 483.333L305.333 483.667L304.667 483.333z"></path>
      <path d="M306 483L306 484L309 484L306 483z"></path>
      <path d="M309 483L310 484L309 483M320 483L321 484L320 483M342 483L343 484L342 483z"></path>
      <path d="M343 483L343 484L346 484L343 483z"></path>
      <path d="M346 483L347 484L346 483M362 483L363 484L362 483z"></path>
      <path d="M363 483L363 484L367 484L363 483z"></path>
      <path d="M367.667 483.333L368.333 483.667L367.667 483.333M419 483L420 484L419 483M429 483L430 484L429 483M431 483L432 484L431 483M147 487L147 488L150 488L147 487M162 487L162 488L165 488L162 487z"></path> -->
  </symbol>
</svg>