<!-- <?xml version="1.0" standalone="yes"?> -->
<svg width="0" height="0" class="hidden">
  <!-- <symbol xmlns="http://www.w3.org/2000/svg" viewBox="0 0 600 562" id="logo"> -->
  <symbol xmlns="http://www.w3.org/2000/svg" viewBox="20 -10 600 460" id="logo">
    <path style="fill:transparent; stroke:none;" d="M0 0L0 562L600 562L600 0L0 0z"/>
    <path style="fill:#c8b443; stroke:none;" d="M278 76L278 77L282 77L278 76z"/>
    <path style="fill:#7f4c8e; stroke:none;" d="M257 88C250.818 89.0562 246.657 95.7358 243.792 101C234.664 117.774 237.061 134.082 244 151L243 151C231.412 131.5 200.892 130.544 183 140.312C176.565 143.826 167.996 149.21 167 157C161.001 160.405 159.764 168.783 158 175C169.712 170.712 179.92 163.215 192 159.344C210.395 153.45 228.095 154 247 154C251.147 133.91 259.653 115.086 272.45 99C278.702 91.1403 287.136 84.9667 293 77C282.575 74.5179 262.42 77.5686 257 88z"/>
    <path style="fill:#c8b443; stroke:none;" d="M291 76L291 77L294 78L291 76M296.667 76.3333L297.333 76.6667L296.667 76.3333z"/>
    <path style="fill:#dc2623; stroke:none;" d="M297 77L297 78C311.988 89.4196 325.329 105.793 333.136 123C336.228 129.816 338.912 136.812 340.999 144C341.783 146.698 342.138 151.18 344.564 152.972C347.715 155.301 353.478 153.685 357 153.286C362.945 152.614 370.072 153.579 376 154.428C396.933 157.426 413.229 166.236 432 175C425.832 133.239 374.712 122.878 347 150C358.737 121.383 350.318 88.3308 318 78.348C311.488 76.3365 303.603 75.0483 297 77z"/>
    <path style="fill:#c8b443; stroke:none;" d="M308 76L308 77L312 77L308 76M274.667 77.3333L275.333 77.6667L274.667 77.3333M315 77L316 78L315 77M271 78L272 79L271 78M318.667 78.3333L319.333 78.6667L318.667 78.3333M268 79L269 80L268 79M299 79L300 80L299 79M321.667 79.3333L322.333 79.6667L321.667 79.3333M266 80L267 81L266 80M300 80L301 81L300 80M324 80L325 81L324 80M264 81L265 82L264 81M301 81L302 82L301 81M326 81L327 82L326 81M262 82L263 83L262 82M287 82L288 83L287 82M302 82L303 83L302 82M328 82L329 83L328 82M260 83L261 84L260 83M286 83L287 84L286 83M285 84L286 85L285 84M331 84L332 85L331 84M257 85L258 86L257 85M284 85L285 86L284 85M332 85L333 86L332 85M256 86L257 87L256 86M283 86L284 87L283 86M334 86L335 87L334 86M378.667 86.3333L379.333 86.6667L378.667 86.3333M206 87L207 88L206 87z"/>
    <path style="fill:#804b91; stroke:none;" d="M207 87.5324C182.318 93.4035 192.33 131.343 217 125.468C241.565 119.617 231.544 81.6943 207 87.5324z"/>
    <path style="fill:#c8b443; stroke:none;" d="M216.667 87.3333L217.333 87.6667L216.667 87.3333z"/>
    <path style="fill:#2b241d; stroke:none;" d="M256 87L257 88L256 87z"/>
    <path style="fill:#c8b443; stroke:none;" d="M282 87L283 88L282 87M335 87L336 88L335 87M372.667 87.3333L373.333 87.6667L372.667 87.3333z"/>
    <path style="fill:#df2526; stroke:none;" d="M374 87.5293C349.232 93.2452 358.392 131.15 383 125.471C407.629 119.787 398.491 81.8775 374 87.5293z"/>
    <path style="fill:#c8b443; stroke:none;" d="M383 87L384 88L383 87M203 88L204 89L203 88M281 88L282 89L281 88M336 88L337 89L336 88M370 88L371 89L370 88M386 88L387 89L386 88M280 89L281 90L280 89M337 89L338 90L337 89M368 89L369 90L368 89M388 89L389 90L388 89M200 90L201 91L200 90M223 90L224 91L223 90M279 90L280 91L279 90M338 90L339 91L338 90M366 90L367 91L366 90M278 91L279 92L278 91M311 91L312 92L311 91M339 91L340 92L339 91M365 91L366 92L365 91M391 91L392 92L391 91M277 92L278 93L277 92M312 92L313 93L312 92M340 92L341 93L340 92M364 92L365 93L364 92M392 92L393 93L392 92M313 93L314 94L313 93M341 93L342 94L341 93M363 93L364 94L363 93M393 93L394 94L393 93M196 94L197 95L196 94M227 94L228 95L227 94z"/>
    <path style="fill:#b13a59; stroke:none;" d="M270.667 94.3333L271.333 94.6667L270.667 94.3333z"/>
    <path style="fill:#c8b443; stroke:none;" d="M314 94L315 95L314 94M195 95L196 96L195 95M228 95L229 96L228 95M247 95L248 96L247 95M315 95L316 96L315 95M246 96L247 97L246 96M361 96L362 97L361 96M395 96L396 97L395 96M194 97L195 98L194 97M229 97L230 98L229 97M273 97L274 98L273 97M344 97L345 98L344 97M272 98L273 99L272 98M360 98L361 99L360 98M396 98L397 99L396 98M193 99L194 100L193 99M230 99L231 100L230 99M318 99L319 100L318 99M319 100L320 101L319 100M346 100L347 101L346 100M359 100L360 101L359 100M397.333 100.667L397.667 101.333L397.333 100.667M243 101L244 102L243 101M192.333 102.667L192.667 103.333L192.333 102.667M269 102L270 103L269 102M347 102L348 103L347 102M231.333 103.667L231.667 104.333L231.333 103.667M242 103L243 104L242 103M321 103L322 104L321 103M348 104L349 105L348 104M358 104L358 109L359 109L358 104M241 105L242 106L241 105M267 105L268 106L267 105M323 106L324 107L323 106M349 106L350 107L349 106M240 107L241 108L240 107M324 107L325 108L324 107M231.333 108.667L231.667 109.333L231.333 108.667M265 108L266 109L265 108M192.333 109.667L192.667 110.333L192.333 109.667M325 109L326 110L325 109M350 109L351 110L350 109M239 110L240 111L239 110M326 110L327 111L326 110M263 111L264 112L263 111M397.333 111.667L397.667 112.333L397.333 111.667M327 112L328 113L327 112M351.333 112.667L351.667 113.333L351.333 112.667M359 112L360 113L359 112M193 113L194 114L193 113z"/>
    <path style="fill:#b13a59; stroke:none;" d="M227 113L228 114L227 113z"/>
    <path style="fill:#c8b443; stroke:none;" d="M230 113L231 114L230 113M262 113L263 114L262 113M238 114L239 115L238 114M328 114L329 115L328 114M360 114L361 115L360 114M396 114L397 115L396 114M194 115L195 116L194 115M229 115L230 116L229 115M260 116L261 117L260 116M352 116L352 119L353 119L352 116M395 116L396 117L395 116M195 117L196 118L195 117M228 117L229 118L228 117M330 117L331 118L330 117M259 118L260 119L259 118M362 118L363 119L362 118M237 119L237 124L238 124L237 119M331 119L332 120L331 119M363 119L364 120L363 119M393 119L394 120L393 119M258 120L259 121L258 120M364 120L365 121L364 120M392 120L393 121L392 120M332 121L333 122L332 121M365 121L366 122L365 121M391 121L392 122L391 121M200 122L201 123L200 122z"/>
    <path style="fill:#b13a59; stroke:none;" d="M211 122L212 123L211 122z"/>
    <path style="fill:#c8b443; stroke:none;" d="M223 122L224 123L223 122M257 122L258 123L257 122M366 122L367 123L366 122M390 122L391 123L390 122M201 123L202 124L201 123M222 123L223 124L222 123M333 123L334 124L333 123M368 123L369 124L368 123M388 123L389 124L388 123M256 124L257 125L256 124M370 124L371 125L370 124M386 124L387 125L386 124M206 125L207 126L206 125M217 125L218 126L217 125M372.667 125.333L373.333 125.667L372.667 125.333M383.667 125.333L384.333 125.667L383.667 125.333M237 126L238 127L237 126M255 126L256 127L255 126M334 126L335 127L334 126M378 126L379 127L378 126M237 128L237 132L238 132L237 128M335 128L336 129L335 128M336 130L337 131L336 130M253 131L254 132L253 131M352 132L352 135L353 135L352 132M337 133L338 134L337 133M199.667 134.333L200.333 134.667L199.667 134.333M213.667 134.333L214.333 134.667L213.667 134.333M252 134L253 135L252 134M375 134L375 135L378 135L375 134M389 134L389 135L392 135L389 134M194.667 135.333L195.333 135.667L194.667 135.333M218 135L219 136L218 135M370.667 135.333L371.333 135.667L370.667 135.333M395.667 135.333L396.333 135.667L395.667 135.333M191 136L192 137L191 136M222 136L223 137L222 136M238 136L239 137L238 136M338 136L339 137L338 136M367.667 136.333L368.333 136.667L367.667 136.333M399 136L400 137L399 136M188 137L189 138L188 137M251 137L252 138L251 137M351.333 137.667L351.667 138.333L351.333 137.667M365 137L366 138L365 137M401 137L402 138L401 137M186 138L187 139L186 138M227 138L228 139L227 138M339.333 138.667L339.667 139.333L339.333 138.667M362 138L363 139L362 138M404 138L405 139L404 138M184 139L185 140L184 139M229 139L230 140L229 139M239.333 139.667L239.667 140.333L239.333 139.667M406 139L407 140L406 139M182 140L183 141L182 140M231 140L232 141L231 140M250 140L251 141L250 140M408 140L409 141L408 140M180 141L181 142L180 141z"/>
    <path style="fill:#b13a59; stroke:none;" d="M222.667 141.333L223.333 141.667L222.667 141.333z"/>
    <path style="fill:#c8b443; stroke:none;" d="M350 141L351 142L350 141M357 141L358 142L357 141M409 141L410 142L409 141M179 142L180 143L179 142M234 142L235 143L234 142M240 142L241 143L240 142M340 142L341 143L340 142M355 142L356 143L355 142M411 142L412 143L411 142M177 143L178 144L177 143M249 143L250 144L249 143M354 143L355 144L354 143M412 143L413 144L412 143M176 144L177 145L176 144z"/>
    <path style="fill:#b13a59; stroke:none;" d="M245.667 144.333L246.333 144.667L245.667 144.333z"/>
    <path style="fill:#c8b443; stroke:none;" d="M349 144L350 145L349 144M238 145L239 146L238 145M241 145L242 146L241 145M341.333 145.667L341.667 146.333L341.333 145.667M351 145L352 146L351 145M415 145L416 146L415 145M239 146L240 147L239 146M348 146L347 150L348 146M350 146L351 147L350 146M416 146L417 147L416 146M240 147L241 148L240 147M242 147L243 148L242 147M248 147L249 148L248 147z"/>
    <path style="fill:#fcfdfd; stroke:none;" d="M348 147L349 148L348 147z"/>
    <path style="fill:#c8b443; stroke:none;" d="M417 147L418 148L417 147z"/>
    <path style="fill:#fcfdfd; stroke:none;" d="M242 148L243 149L242 148z"/>
    <path style="fill:#c8b443; stroke:none;" d="M418 148L419 149L418 148M242 149L244 151L244 149L242 149M342.333 149.667L342.667 150.333L342.333 149.667M419 149L420 150L419 149M346 150L347 151L346 150M420 150L421 151L420 150M247 151L248 152L247 151M421 151L422 152L421 151M168 152L169 153L168 152M167 153L168 154L167 153M226 153L226 154L236 154L226 153M343 153L344 154L343 153M355 153L355 154L365 154L355 153M214 154L214 155L217 155L214 154M245.667 154.333L246.333 154.667L245.667 154.333M344.667 154.333L345.333 154.667L344.667 154.333M373 154L373 155L377 155L373 154M423 154L424 155L423 154M207.667 155.333L208.333 155.667L207.667 155.333M381.667 155.333L382.333 155.667L381.667 155.333M424 155L425 156L424 155M165 156L166 157L165 156z"/>
    <path style="fill:#2b241d; stroke:none;" d="M166 156L167 157L166 156z"/>
    <path style="fill:#c8b443; stroke:none;" d="M202.667 156.333L203.333 156.667L202.667 156.333M386.667 156.333L387.333 156.667L386.667 156.333M198 157L199 158L198 157M391 157L392 158L391 157M425 157L426 158L425 157M194.667 158.333L195.333 158.667L194.667 158.333M395 158L396 159L395 158M426 158L427 159L426 158M163 159L164 160L163 159M191 159L192 160L191 159M398 159L399 160L398 159M188 160L189 161L188 160M401 160L402 161L401 160M427 160L428 161L427 160M162 161L163 162L162 161M185 161L186 162L185 161M404 161L405 162L404 161M183 162L184 163L183 162M407 162L408 163L407 162M428 162L429 163L428 162M161 163L162 164L161 163M180 163L181 164L180 163M409 163L410 164L409 163M178 164L179 165L178 164M411 164L412 165L411 164M176 165L177 166L176 165M413.667 165.333L414.333 165.667L413.667 165.333M429 165L430 166L429 165M160 166L161 167L160 166M174 166L175 167L174 166M416 166L417 167L416 166M418 167L419 168L418 167M430.333 167.667L430.667 168.333L430.333 167.667M170 168L171 169L170 168M419.667 168.333L420.333 168.667L419.667 168.333M159 169L160 170L159 169M168 169L169 170L168 169M166 170L167 171L166 170M423 170L424 171L423 170M425 171L426 172L425 171M431 171L432 172L431 171M158.333 172.667L158.667 173.333L158.333 172.667M427 172L428 173L427 172M161 173L162 174L161 173M428 173L429 174L428 173M430 174L431 175L430 174M431 175L432 176L431 175M157 177L158 178L157 177z"/>
    <path style="fill:#4c82be; stroke:none;" d="M157 178C146.971 204.906 156.112 235.547 185 245.91C194.108 249.177 202.639 248.402 212 248L212 249C176.054 259.578 172.008 323.731 209 336C205.259 316.712 202.797 298.55 206.46 279C207.981 270.88 217.128 254.772 215.187 247.184C213.479 240.511 197.067 232.926 192 227.985C184.096 220.278 176.296 212.451 170.461 203C165.574 195.085 162.548 185.33 157 178z"/>
    <path style="fill:#f7aa2a; stroke:none;" d="M432 178C426.189 195.065 415.176 212.521 401.816 224.665C396.371 229.613 391.06 234.588 385 238.795C382.006 240.873 376.793 242.887 375.133 246.326C372.493 251.794 381.691 269.598 382.996 276C387.394 297.569 383.87 315.684 381 337C414.221 321.215 418.841 260.724 379 249L379 248C406.486 251.474 433.525 236.221 437.7 207C439.18 196.638 436.286 187.88 434 178L432 178M156 179L157 180L156 179M158 179L159 180L158 179M155 181L156 182L155 181M159 182L160 183L159 182M154.333 184.667L154.667 185.333L154.333 184.667M160 184L161 185L160 184M161 186L162 187L161 186M153.333 188.667L153.667 189.333L153.333 188.667M162 188L163 189L162 188M163 190L164 191L163 190M164 192L165 193L164 192M152 194L152 197L153 197L152 194M165 194L166 195L165 194M166 196L167 197L166 196M169 201L170 202L169 201M152 203L152 206L153 206L152 203M170 203L171 204L170 203M171 204L172 205L171 204M172 206L173 207L172 206M173 207L174 208L173 207M153 210L154 211L153 210M175 210L176 211L175 210M154 214L155 215L154 214M178 214L179 215L178 214M179 215L180 216L179 215M155.333 216.667L155.667 217.333L155.333 216.667M156 219L157 220L156 219M157 221L158 222L157 221M158 223L159 224L158 223M159 225L160 226L159 225M160 226L161 227L160 226M162 229L163 230L162 229M195 231L196 232L195 231M196 232L197 233L196 232M200 235L201 236L200 235M171 238L172 239L171 238M204 238L205 239L204 238M174 240L175 241L174 240M207 240L208 241L207 240M177 242L178 243L177 242M210 242L211 243L210 242M179 243L180 244L179 243M181 244L182 245L181 244M213 244L214 245L213 244M156 245L157 246L156 245z"/>
    <path style="fill:#4c82be; stroke:none;" d="M157 245.519C131.606 250.906 139.914 289.073 165 283.61C189.036 278.375 181.062 240.415 157 245.519z"/>
    <path style="fill:#a1c24d; stroke:none;" d="M164.667 245.333L165.333 245.667L164.667 245.333M183 245L184 246L183 245M215 245L216 246L215 245M425 245.532C399.366 251.629 410.632 290.098 436 283.442C460.037 277.136 448.908 239.846 425 245.532M153 246L154 247L153 246M186 246L187 247L186 246M216.333 246.667L216.667 247.333L216.333 246.667M190 247L191 248L190 247M212 247L213 248L212 247M149 248L150 249L149 248M171 248L172 249L171 248M195 248L195 249L198 249L195 248M206.667 248.333L207.333 248.667L206.667 248.333M211 248L212 249L211 248M209 249L210 250L209 249M215 249L216 250L215 249M174 250L175 251L174 250M207 250L208 251L207 250M214 251L215 252L214 251M204 252L205 253L204 252M143 254L144 255L143 254M177 254L178 255L177 254M201 254L202 255L201 254M213 254L214 255L213 254M200 255L201 256L200 255M142 256L143 257L142 256M178 256L179 257L178 256M212 257L213 258L212 257M141 259L142 260L141 259M179 259L180 260L179 259M211 259L212 260L211 259M194 261L195 262L194 261M193 262L194 263L193 262M210 263L211 264L210 263M191 265L192 266L191 265M190 266L191 267L190 266M209 266L210 267L209 266M189 268L190 269L189 268M141 269L142 270L141 269M179.333 269.667L179.667 270.333L179.333 269.667M208.333 269.667L208.667 270.333L208.333 269.667M188 270L189 271L188 270M142 272L143 273L142 272M178 272L179 273L178 272M187 272L188 273L187 272M143 274L144 275L143 274M177 274L178 275L177 274M186 274L187 275L186 274M207 274L208 275L207 274M145 277L146 278L145 277M175 277L176 278L175 277M146 278L147 279L146 278M174 278L175 279L174 278M206 278L206 281L207 281L206 278M147 279L148 280L147 279M173 279L174 280L173 279M148 280L149 281L148 280M172 280L173 281L172 280M184 280L185 281L184 280M150 281L151 282L150 281M170 281L171 282L170 281M168 282L169 283L168 282M154 283L155 284L154 283M166 283L167 284L166 283M183.333 284.667L183.667 285.333L183.333 284.667M205.333 285.667L205.667 286.333L205.333 285.667M204 295L204 306L205 306L204 295M183.333 301.667L183.667 302.333L183.333 301.667M211 338L211 339C242.003 362.941 289.223 351.902 295 309L296 309C296.805 346.775 355.14 370.321 379 338C358.948 337.834 338.459 331.282 321 321.688C314.751 318.255 301.718 304.375 295 304.882C287.455 305.451 276.871 317.471 270 321.23C252.046 331.052 231.675 337.943 211 338M184.333 305.667L184.667 306.333L184.333 305.667M185 309L186 310L185 309M187 314L188 315L187 314M205 315L205 318L206 318L205 315M188 316L189 317L188 316M189 318L190 319L189 318M190 319L191 320L190 319M191 321L192 322L191 321M192 322L193 323L192 322M206 322L206 325L207 325L206 322M194 325L195 326L194 325M195 326L196 327L195 326M196 327L197 328L196 327M197 328L198 329L197 328M207 328L208 329L207 328M198 329L199 330L198 329M199 330L200 331L199 330M202 332L203 333L202 332M208.333 332.667L208.667 333.333L208.333 332.667M203 333L204 334L203 333M206 335L207 336L206 335M208.667 336.333L209.333 336.667L208.667 336.333M290 343.532C265.805 349.297 275.436 387.147 300 381.471C325.121 375.665 314.926 337.594 290 343.532z"/>
  </symbol>
</svg>